<?xml version="1.0" standalone="no"?>
<!DOCTYPE svg PUBLIC "-//W3C//DTD SVG 20010904//EN"
 "http://www.w3.org/TR/2001/REC-SVG-20010904/DTD/svg10.dtd">
<svg version="1.0" xmlns="http://www.w3.org/2000/svg"
 width="43.000000pt" height="23.000000pt" viewBox="0 0 43.000000 23.000000"
 preserveAspectRatio="xMidYMid meet">

<g transform="translate(0.000000,23.000000) scale(0.100000,-0.100000)"
fill="#000000" stroke="none">
<path d="M115 199 c-23 -10 -58 -33 -78 -50 l-38 -32 28 -29 c102 -108 274
-108 376 0 l28 29 -38 32 c-87 72 -194 91 -278 50z m147 -10 c28 -15 50 -72
39 -102 -12 -32 -58 -67 -87 -67 -12 0 -36 12 -53 26 -82 69 6 194 101 143z"/>
<path d="M170 155 c-20 -24 -15 -67 10 -87 27 -22 39 -22 68 -2 28 19 28 30 1
37 -17 5 -21 12 -17 36 4 28 2 31 -23 31 -14 0 -32 -7 -39 -15z"/>
</g>
</svg>
