<?xml version="1.0" standalone="no"?>
<!DOCTYPE svg PUBLIC "-//W3C//DTD SVG 20010904//EN"
 "http://www.w3.org/TR/2001/REC-SVG-20010904/DTD/svg10.dtd">
<svg version="1.0" xmlns="http://www.w3.org/2000/svg"
 width="41.000000pt" height="41.000000pt" viewBox="0 0 41.000000 41.000000"
 preserveAspectRatio="xMidYMid meet">

<g transform="translate(0.000000,41.000000) scale(0.100000,-0.100000)"
fill="#000000" stroke="none">
<path d="M181 386 c-19 -34 -11 -58 20 -62 21 -2 28 3 31 20 4 19 -21 66 -34
66 -3 0 -10 -11 -17 -24z"/>
<path d="M129 284 c-11 -14 -10 -18 6 -30 37 -27 71 -1 40 30 -21 20 -29 20
-46 0z"/>
<path d="M230 285 c-15 -18 -6 -45 13 -45 8 0 20 7 27 15 10 12 10 18 0 30
-16 19 -24 19 -40 0z"/>
<path d="M0 214 c0 -48 4 -59 29 -85 17 -17 40 -29 55 -29 25 0 26 3 26 53 0
39 -5 58 -17 69 -18 16 -77 48 -88 48 -3 0 -5 -25 -5 -56z"/>
<path d="M337 239 l-48 -30 3 -52 c3 -48 5 -52 29 -55 19 -2 36 6 58 28 27 28
31 38 31 86 0 64 -6 66 -73 23z"/>
<path d="M144 196 c-3 -8 -4 -27 -2 -43 3 -27 6 -28 61 -31 l57 -3 0 46 0 45
-55 0 c-39 0 -57 -4 -61 -14z m68 -38 c-15 -15 -26 -4 -18 18 5 13 9 15 18 6
9 -9 9 -15 0 -24z"/>
<path d="M109 61 c-19 -16 -31 -32 -28 -36 4 -3 22 8 40 24 43 40 33 49 -12
12z"/>
<path d="M172 52 c-18 -18 -32 -38 -32 -43 0 -5 27 -9 60 -9 69 0 73 8 32 55
l-29 32 -31 -35z"/>
<path d="M279 56 c36 -38 54 -46 45 -21 -3 8 -22 24 -42 35 l-37 22 34 -36z"/>
</g>
</svg>
