<?xml version="1.0" standalone="no"?>
<!DOCTYPE svg PUBLIC "-//W3C//DTD SVG 20010904//EN"
 "http://www.w3.org/TR/2001/REC-SVG-20010904/DTD/svg10.dtd">
<svg version="1.0" xmlns="http://www.w3.org/2000/svg"
 width="46.000000pt" height="37.000000pt" viewBox="0 0 46.000000 37.000000"
 preserveAspectRatio="xMidYMid meet">

<g transform="translate(0.000000,37.000000) scale(0.100000,-0.100000)"
fill="#000000" stroke="none">
<path d="M178 190 l-3 -180 58 0 57 0 -2 178 -3 177 -52 3 -52 3 -3 -181z"/>
<path d="M350 146 l0 -136 55 0 56 0 -3 133 -3 132 -52 3 -53 3 0 -135z"/>
<path d="M7 183 c-4 -3 -7 -44 -7 -90 l0 -83 55 0 55 0 0 90 0 90 -48 0 c-27
0 -52 -3 -55 -7z"/>
</g>
</svg>
